<?xml version="1.0" standalone="no"?>
<!DOCTYPE svg PUBLIC "-//W3C//DTD SVG 20010904//EN"
 "http://www.w3.org/TR/2001/REC-SVG-20010904/DTD/svg10.dtd">
<svg version="1.0" xmlns="http://www.w3.org/2000/svg"
 width="250.000000pt" height="250.000000pt" viewBox="0 0 250.000000 250.000000"
 preserveAspectRatio="xMidYMid meet">

<g transform="translate(0.000000,250.000000) scale(0.100000,-0.100000)"
fill="#000000" stroke="none">
<path d="M873 2342 c-13 -8 -364 -608 -371 -634 -2 -10 71 -146 179 -333 193
-330 208 -350 247 -311 10 9 91 143 182 299 l166 282 344 3 c302 2 346 4 362
19 10 9 18 23 18 31 0 18 -357 633 -374 644 -14 10 -737 10 -753 0z m634 -99
c-31 -61 -253 -433 -257 -433 -5 0 -217 357 -257 433 -2 4 113 7 257 7 144 0
259 -3 257 -7z m-472 -273 l125 -215 -130 -3 c-71 -1 -189 -1 -260 0 l-130 3
127 218 c69 120 130 216 135 215 4 -2 64 -100 133 -218z m700 0 l125 -215
-130 -3 c-71 -1 -189 -1 -260 0 l-130 3 127 218 c69 120 130 216 135 215 4 -2
64 -100 133 -218z m-578 -327 c-31 -62 -253 -433 -258 -433 -3 0 -55 84 -115
188 -59 103 -116 202 -127 220 l-19 32 262 0 c143 0 259 -3 257 -7z"/>
<path d="M1569 1438 c-6 -7 -87 -141 -178 -298 l-168 -285 -352 -5 c-369 -5
-370 -5 -371 -49 0 -17 358 -633 374 -643 6 -4 175 -8 376 -8 201 0 370 4 376
8 15 10 374 626 374 642 0 16 -359 632 -374 642 -17 12 -44 9 -57 -4z m166
-368 l124 -215 -129 -3 c-72 -1 -189 -1 -260 0 l-130 3 127 218 c69 120 130
216 135 215 4 -2 64 -100 133 -218z m-578 -327 c-31 -61 -253 -433 -257 -433
-5 0 -217 357 -257 433 -2 4 113 7 257 7 144 0 259 -3 257 -7z m686 -25 c-196
-338 -238 -408 -244 -408 -4 0 -217 358 -256 433 -2 4 114 7 257 7 l262 0 -19
-32z m-458 -248 l125 -215 -130 -3 c-71 -1 -189 -1 -260 0 l-130 3 127 218
c69 120 130 216 135 215 4 -2 64 -100 133 -218z"/>
</g>
</svg>
