<?xml version="1.0" standalone="no"?>
<!DOCTYPE svg PUBLIC "-//W3C//DTD SVG 20010904//EN"
 "http://www.w3.org/TR/2001/REC-SVG-20010904/DTD/svg10.dtd">
<svg version="1.0" xmlns="http://www.w3.org/2000/svg"
 width="240.000000pt" height="240.000000pt" viewBox="0 0 240.000000 240.000000"
 preserveAspectRatio="xMidYMid meet">

<g transform="translate(0.000000,240.000000) scale(0.100000,-0.100000)"
fill="#000000" stroke="none">
<path d="M480 2137 c-166 -37 -256 -162 -276 -383 -8 -88 7 -204 52 -409 80
-359 185 -594 284 -635 47 -20 81 1 171 106 l81 94 -43 47 c-23 27 -53 71 -66
100 -24 52 -47 159 -37 174 3 5 5 92 5 194 0 119 4 212 13 258 27 137 86 266
165 358 18 22 32 42 29 44 -2 2 -42 15 -88 28 -107 31 -217 40 -290 24z"/>
<path d="M1525 2141 l-40 -6 48 -28 c112 -66 240 -217 291 -344 23 -57 24 -65
22 -353 -2 -265 -4 -299 -21 -333 -17 -34 -18 -39 -3 -54 15 -14 22 -4 91 134
117 237 180 457 181 628 0 103 -9 127 -76 194 -127 129 -312 190 -493 162z"/>
<path d="M1113 2090 c-141 -30 -247 -130 -306 -290 -13 -36 -27 -79 -30 -96
l-6 -32 46 14 c144 43 268 -17 309 -151 15 -47 19 -92 18 -215 0 -153 0 -156
-36 -250 -19 -52 -39 -102 -42 -112 -6 -12 0 -18 23 -23 39 -8 77 -39 98 -78
14 -26 18 -76 23 -267 6 -206 9 -241 27 -288 44 -109 106 -160 181 -146 88 16
154 72 199 169 26 58 27 66 33 290 7 242 14 281 60 330 19 21 19 21 -19 75
-21 30 -62 100 -90 155 -119 235 -130 359 -37 452 32 32 57 46 104 59 34 10
62 21 62 26 0 5 -10 28 -21 51 -78 152 -211 268 -357 311 -68 20 -185 28 -239
16z"/>
<path d="M801 1568 l-43 -23 -1 -200 c-1 -188 0 -203 21 -242 12 -23 35 -58
52 -76 33 -38 106 -75 119 -61 11 13 68 161 80 209 17 67 22 157 14 220 l-8
60 -42 -3 c-35 -3 -47 1 -68 22 -16 16 -25 35 -23 49 3 20 9 22 56 22 l53 0
-26 23 c-20 17 -38 22 -83 22 -40 0 -71 -7 -101 -22z"/>
<path d="M1674 1580 c-36 -14 -38 -30 -5 -30 44 0 61 -10 61 -34 0 -37 -43
-69 -84 -64 -25 3 -36 0 -36 -9 0 -28 43 -141 83 -217 37 -72 41 -77 50 -55 5
15 4 60 -3 118 -7 57 -9 134 -5 197 l7 104 -23 -1 c-13 0 -34 -4 -45 -9z"/>
<path d="M1791 874 c-22 -28 -37 -85 -27 -109 7 -19 41 -19 127 -1 76 17 142
47 182 84 43 40 36 55 -20 45 -61 -10 -191 -10 -219 0 -17 6 -27 2 -43 -19z"/>
<path d="M965 841 c-6 -6 -50 -21 -99 -36 -108 -31 -123 -41 -100 -66 21 -23
141 -43 207 -35 101 14 145 53 117 106 -16 29 -105 51 -125 31z"/>
</g>
</svg>
